<?xml version="1.0" standalone="no"?>
<!DOCTYPE svg PUBLIC "-//W3C//DTD SVG 20010904//EN"
 "http://www.w3.org/TR/2001/REC-SVG-20010904/DTD/svg10.dtd">
<svg version="1.0" xmlns="http://www.w3.org/2000/svg"
 width="874.000000pt" height="1280.000000pt" viewBox="0 0 874.000000 1280.000000"
 preserveAspectRatio="xMidYMid meet">
<metadata>
Created by potrace 1.15, written by Peter Selinger 2001-2017
</metadata>
<g transform="translate(0.000000,1280.000000) scale(0.100000,-0.100000)"
fill="#000000" stroke="none">
<path d="M4015 12790 c-167 -30 -403 -153 -495 -258 -55 -62 -115 -189 -134
-284 -16 -78 -37 -251 -33 -272 1 -8 -372 -13 -1366 -18 -793 -4 -1404 -11
-1455 -17 -204 -23 -414 -168 -499 -343 l-33 -68 0 -5335 0 -5336 29 -57 c16
-31 59 -97 95 -145 36 -49 68 -101 71 -115 46 -239 203 -409 458 -499 67 -24
89 -26 347 -33 368 -11 6729 -11 6990 0 162 7 218 13 268 29 240 79 400 232
459 441 17 63 18 254 18 5330 l0 5265 -23 80 c-33 115 -61 156 -191 285 -79
78 -129 137 -156 185 -77 133 -187 221 -366 292 l-94 37 -1371 4 -1372 4 -4
117 c-5 133 -34 234 -94 333 -115 189 -333 328 -574 368 -88 14 -413 21 -475
10z m320 -484 c88 -52 143 -150 152 -271 l6 -75 -251 0 c-172 0 -253 3 -258
11 -3 6 -9 40 -12 75 -4 55 -1 71 22 118 31 63 117 147 167 164 49 16 124 7
174 -22z m-2144 -1176 c340 -5 596 -13 611 -19 l26 -10 -19 -51 c-26 -70 -25
-98 5 -106 14 -3 688 -4 1498 -2 1196 3 1477 6 1496 16 21 12 23 20 20 69 l-3
55 365 -1 c583 -1 1527 -11 1749 -17 l203 -6 -6 -662 c-13 -1321 -37 -3519
-56 -5081 -5 -451 -14 -1196 -20 -1655 -16 -1347 -29 -2306 -36 -2587 l-6
-263 -457 0 c-251 0 -807 4 -1236 10 -429 5 -1187 14 -1685 20 -2079 24 -3926
49 -4096 56 l-142 6 4 436 c34 3843 97 9416 110 9690 l6 123 542 -6 c297 -3
805 -10 1127 -15z"/>
</g>
</svg>
